<svg width="25" height="24" viewBox="0 0 25 24" fill="none" xmlns="http://www.w3.org/2000/svg">
<path d="M12.0332 0L13.3724 0.457901L23.9019 4.12111H24.0332C23.9807 4.3755 23.9544 4.62989 23.9019 4.88428L23.4293 7.65713C23.2455 8.54749 23.0879 9.4633 22.9304 10.3537C22.7728 11.244 22.6415 12.0835 22.484 12.9484L22.0113 15.6704C21.8538 16.4845 21.7225 17.2985 21.5912 18.1125C21.5844 18.1663 21.5641 18.2176 21.532 18.2619C21.5 18.3063 21.4572 18.3423 21.4074 18.3669L13.2936 22.6152L12.112 23.2258C12.0852 23.2444 12.0531 23.2544 12.0201 23.2544C11.9871 23.2544 11.955 23.2444 11.9282 23.2258L4.33955 19.2573L2.58025 18.3415C2.51527 18.2999 2.4685 18.2365 2.44896 18.1634C2.31767 17.2985 2.16012 16.4336 2.00257 15.5686C1.84502 14.7037 1.71373 13.8388 1.55618 12.9739L1.08353 10.2519L0.610884 7.65713C0.479593 6.7922 0.322043 5.92728 0.164494 5.06235C0.111978 4.80796 0.0857195 4.55358 0.0332031 4.29919V4.14655L10.8253 0.407023L12.0069 0H12.0332ZM1.95005 5.26587L2.18638 6.61413L2.65902 9.3361C2.81657 10.201 2.94786 11.066 3.10541 11.9309L3.57806 14.6528C3.73561 15.4669 3.8669 16.2809 3.99819 17.095C4.00544 17.1357 4.02391 17.1737 4.05164 17.205C4.07938 17.2364 4.11535 17.2599 4.15574 17.2731L11.9019 21.3179C11.9368 21.3408 11.9779 21.3531 12.0201 21.3531C12.0622 21.3531 12.1034 21.3408 12.1382 21.3179L16.2345 19.181L19.9107 17.2731L20.0157 17.1459C20.0945 16.6625 20.1995 16.1537 20.2783 15.645C20.4883 14.5002 20.6722 13.3555 20.8822 12.2107C21.0923 11.066 21.2761 9.94664 21.4862 8.80188C21.6962 7.65713 21.88 6.51238 22.0901 5.36762C22.0901 5.26587 22.0638 5.24043 21.9851 5.21499L12.112 1.70441C12.0829 1.69252 12.0516 1.68639 12.0201 1.68639C11.9885 1.68639 11.9573 1.69252 11.9282 1.70441L3.34174 4.75709L1.95005 5.26587Z" fill="white"/>
<path d="M18.8864 16.6116H16.812C16.7332 16.6116 16.7069 16.5607 16.6807 16.5098C16.3131 15.7212 15.9192 14.9581 15.5516 14.1694L15.3678 13.7879C15.3415 13.7115 15.289 13.6861 15.184 13.6861H8.85573C8.75069 13.6861 8.69818 13.7115 8.67192 13.8133C8.22553 14.7037 7.77914 15.594 7.35901 16.5098C7.30649 16.5607 7.28024 16.6116 7.1752 16.6116H5.15332L12.0067 2.08594L18.8864 16.6116ZM12.0067 6.99566L9.74851 11.6256H14.2912C13.5297 10.0992 12.7945 8.54744 12.0067 6.99566Z" fill="white"/>
</svg>
