<svg
  width="100%"
  viewBox="0 0 35 35"
  fill="none"
  xmlns="http://www.w3.org/2000/svg"
>
  <path
    d="M20.2944 10.0028L18.4763 10C16.4338 10 15.1138 11.3102 15.1138 13.3381V14.8772H13.2859C13.1279 14.8772 13 15.0011 13 15.1539V17.3839C13 17.5367 13.1281 17.6604 13.2859 17.6604H15.1138V25.548C15.1138 25.7008 15.2418 25.8246 15.3997 25.8246H17.7847C17.9427 25.8246 18.0706 25.7007 18.0706 25.548V17.6604H20.2079C20.3659 17.6604 20.4938 17.5367 20.4938 17.3839L20.4947 15.1539C20.4947 15.0805 20.4645 15.0102 20.4109 14.9583C20.3574 14.9064 20.2845 14.8772 20.2086 14.8772H18.0706V13.5725C18.0706 12.9454 18.225 12.627 19.0694 12.627L20.2941 12.6266C20.4519 12.6266 20.5798 12.5027 20.5798 12.35V10.2794C20.5798 10.1269 20.4521 10.0031 20.2944 10.0028Z"
    fill="white"
  />
</svg>
