<svg
  width="100%"
  viewBox="0 0 35 35"
  fill="none"
  xmlns="http://www.w3.org/2000/svg"
>
  <path
    fill-rule="evenodd"
    clip-rule="evenodd"
    d="M21.3085 9H13.6913C11.1045 9 9 11.1046 9 13.6914V21.3086C9 23.8955 11.1045 26 13.6913 26H21.3085C23.8955 26 26 23.8954 26 21.3086V13.6914C26.0001 11.1046 23.8955 9 21.3085 9ZM24.4918 21.3086C24.4918 23.0638 23.0638 24.4917 21.3086 24.4917H13.6913C11.9362 24.4918 10.5083 23.0638 10.5083 21.3086V13.6914C10.5083 11.9363 11.9362 10.5083 13.6913 10.5083H21.3085C23.0637 10.5083 24.4917 11.9363 24.4917 13.6914V21.3086H24.4918ZM13.1195 17.5002C13.1195 15.0848 15.0846 13.1197 17.5 13.1197C19.9154 13.1197 21.8805 15.0848 21.8805 17.5002C21.8805 19.9155 19.9154 21.8805 17.5 21.8805C15.0846 21.8805 13.1195 19.9155 13.1195 17.5002ZM17.5 20.372C15.9164 20.372 14.6279 19.0837 14.6279 17.5001C14.6279 15.9164 15.9163 14.628 17.5 14.628C19.0837 14.628 20.3721 15.9164 20.3721 17.5001C20.3721 19.0837 19.0836 20.372 17.5 20.372ZM21.2829 12.1646C21.4881 11.9584 21.7736 11.8408 22.0642 11.8408C22.3558 11.8408 22.6414 11.9584 22.8465 12.1646C23.0526 12.3697 23.1703 12.6553 23.1703 12.9469C23.1703 13.2375 23.0526 13.5231 22.8465 13.7292C22.6404 13.9343 22.3558 14.053 22.0642 14.053C21.7736 14.053 21.488 13.9343 21.2829 13.7292C21.0767 13.5231 20.9581 13.2376 20.9581 12.9469C20.9581 12.6553 21.0766 12.3697 21.2829 12.1646Z"
    fill="white"
  />
</svg>
