<svg width="27" height="25" viewBox="0 0 27 25" fill="none" xmlns="http://www.w3.org/2000/svg">
<g clip-path="url(#clip0)">
<path d="M26.2816 18.4139C24.1274 22.3937 20.7093 24.5518 16.1135 24.9442C7.72629 25.6729 1.37842 19.3108 0.229486 13.3691C-0.459876 9.64151 0.344379 6.36236 3.36034 3.47559C2.01034 6.86684 2.24012 9.97783 3.67629 13.0608C5.11246 16.1437 7.46778 18.3579 10.455 19.9834C14.8497 22.3937 22.0306 22.674 26.2816 18.4139Z" fill="black"/>
<path d="M26.9997 11.6874C25.4199 14.9386 22.7199 16.5081 19.0433 16.6762C14.7635 16.9004 10.6273 14.4341 8.76032 10.5383C7.20926 7.28721 7.69756 3.95201 10.1103 1.37354C9.01884 6.7547 10.8859 10.7906 15.4816 13.1448C19.5891 15.2469 23.9263 14.6583 26.9997 11.6874Z" fill="black"/>
<path d="M15.8831 0C15.596 1.26049 15.7088 2.57639 16.2065 3.77286C16.7041 4.96932 17.5631 5.9897 18.6693 6.69843C20.9959 8.26794 23.7534 8.38005 25.9938 6.95067C25.247 8.52018 23.5236 9.47309 21.3693 9.41704C18.497 9.33296 16.4002 7.93161 15.1938 5.43722C14.2459 3.50336 14.5044 1.65359 15.8831 0Z" fill="black"/>
</g>
<defs>
<clipPath id="clip0">
<rect width="27" height="25" fill="white"/>
</clipPath>
</defs>
</svg>
