<svg width="24" height="28" viewBox="0 0 24 28" fill="none" xmlns="http://www.w3.org/2000/svg">
<g clip-path="url(#clip0)">
<path d="M12 27.1495C11.6273 27.1495 11.2795 27.0498 10.9565 26.8752L7.65217 24.9047C7.15528 24.6304 7.40373 24.5306 7.5528 24.4807C8.2236 24.2562 8.34783 24.2064 9.04348 23.8073C9.11801 23.7574 9.21739 23.7823 9.29193 23.8322L11.8261 25.3537C11.9255 25.4036 12.0497 25.4036 12.1242 25.3537L22.0373 19.5921C22.1366 19.5422 22.1863 19.4424 22.1863 19.3177V7.81937C22.1863 7.69465 22.1366 7.59489 22.0373 7.545L12.1242 1.80831C12.0248 1.75842 11.9006 1.75842 11.8261 1.80831L1.91304 7.545C1.81366 7.59489 1.76398 7.7196 1.76398 7.81937V19.3177C1.76398 19.4175 1.81366 19.5422 1.91304 19.5921L4.62112 21.1634C6.08696 21.9117 7.00621 21.0387 7.00621 20.1657V8.81705C7.00621 8.6674 7.13043 8.51775 7.30435 8.51775H8.57143C8.7205 8.51775 8.86957 8.64246 8.86957 8.81705V20.1657C8.86957 22.1362 7.80124 23.2835 5.93789 23.2835C5.36646 23.2835 4.91925 23.2835 3.65217 22.6599L1.04348 21.1634C0.397516 20.7893 0 20.0909 0 19.3426V7.84431C0 7.09604 0.397516 6.39766 1.04348 6.02353L10.9565 0.261892C11.5776 -0.0872975 12.4224 -0.0872975 13.0435 0.261892L22.9565 6.02353C23.6025 6.39766 24 7.09604 24 7.84431V19.3426C24 20.0909 23.6025 20.7893 22.9565 21.1634L13.0435 26.9251C12.7205 27.0747 12.3478 27.1495 12 27.1495ZM15.0559 19.2429C10.7081 19.2429 9.81367 17.2475 9.81367 15.5514C9.81367 15.4018 9.93789 15.2521 10.1118 15.2521H11.4037C11.5528 15.2521 11.677 15.3519 11.677 15.5015C11.8758 16.8235 12.4472 17.472 15.0807 17.472C17.1677 17.472 18.0621 16.9981 18.0621 15.8757C18.0621 15.2272 17.8137 14.7533 14.559 14.429C11.8509 14.1547 10.1615 13.5561 10.1615 11.3861C10.1615 9.36578 11.8509 8.16856 14.6832 8.16856C17.8634 8.16856 19.4286 9.26601 19.6273 11.6605C19.6273 11.7353 19.6025 11.8101 19.5528 11.8849C19.5031 11.9348 19.4286 11.9847 19.354 11.9847H18.0621C17.9379 11.9847 17.8137 11.8849 17.7888 11.7602C17.4907 10.3884 16.7205 9.93945 14.6832 9.93945C12.3975 9.93945 12.1242 10.7376 12.1242 11.3362C12.1242 12.0595 12.4472 12.284 15.528 12.6831C18.5839 13.0822 20.0248 13.6558 20.0248 15.8009C20 17.9958 18.2112 19.2429 15.0559 19.2429Z" fill="white"/>
</g>
<defs>
<clipPath id="clip0">
<rect width="24" height="27.2" fill="white"/>
</clipPath>
</defs>
</svg>
