<svg viewBox="0 0 20 15" fill="none" xmlns="http://www.w3.org/2000/svg">
<path d="M19.9851 1.9339C19.9851 1.91105 20.0009 1.8888 19.9998 1.86621L13.8965 7.74708L19.9925 13.4401C19.9961 13.3994 19.9851 13.3584 19.9851 13.3169V1.9339Z" fill="white"/>
<path d="M12.9653 8.65234L10.4737 11.0495C10.3477 11.1708 10.1848 11.2317 10.0219 11.2317C9.86236 11.2317 9.70283 11.1734 9.57762 11.0567L7.09284 8.74132L0.957031 14.6556C1.10623 14.7092 1.26637 14.7508 1.43407 14.7508H18.6098C18.8588 14.7508 19.0924 14.6749 19.2955 14.5618L12.9653 8.65234Z" fill="white"/>
<path d="M10.015 9.68209L19.3295 0.709497C19.1186 0.584112 18.8731 0.5 18.61 0.5H1.43428C1.09166 0.5 0.777718 0.633032 0.533203 0.835926L10.015 9.68209Z" fill="white"/>
<path d="M0 2.15234V13.3166C0 13.4448 0.0294565 13.5683 0.0614329 13.6864L6.12113 7.85109L0 2.15234Z" fill="white"/>
</svg>
