<svg
  width="100%"
  viewBox="0 0 35 35"
  fill="none"
  xmlns="http://www.w3.org/2000/svg"
>
  <path
    fill-rule="evenodd"
    clip-rule="evenodd"
    d="M11.1838 7C9.86356 7 9 7.85447 9 8.97813C9 10.0773 9.83857 10.9577 11.1326 10.9577H11.1584C12.5042 10.9577 13.3412 10.0775 13.3412 8.97813C13.3158 7.85447 12.5042 7 11.1838 7ZM27 17.4052V23.9714H23.142V17.8449C23.142 16.3059 22.584 15.2556 21.1875 15.2556C20.1215 15.2556 19.4871 15.9634 19.208 16.6481C19.1063 16.8929 19.0801 17.2336 19.0801 17.5763V23.9714H15.2208C15.2208 23.9714 15.2728 13.5952 15.2208 12.5201H19.0797V14.1433C19.076 14.149 19.0718 14.155 19.0676 14.1609C19.0629 14.1675 19.0582 14.1741 19.0543 14.1803H19.0797V14.1433C19.5924 13.3641 20.508 12.2511 22.5574 12.2511C25.0965 12.251 27 13.8878 27 17.4052ZM13.087 23.9714H9.22921V12.5201H13.087V23.9714Z"
    fill="white"
  />
</svg>
