<svg
  width="100%"
  viewBox="0 0 68 46"
  fill="none"
  xmlns="http://www.w3.org/2000/svg"
>
  <g clip-path="url(#clip0)">
    <path
      d="M66.9504 1.42272C67.0345 1.27791 67.0786 1.11357 67.0782 0.946353C67.0779 0.779138 67.033 0.614993 66.9482 0.470555C66.8634 0.326118 66.7417 0.206523 66.5955 0.123893C66.4492 0.0412622 66.2835 -0.0014662 66.1153 3.84061e-05H57.3111C57.1421 -0.00146486 56.9757 0.0416463 56.829 0.124966C56.6823 0.208285 56.5605 0.328825 56.476 0.474265L37.4837 33.1959C37.4054 33.34 37.366 33.5019 37.3693 33.6656C37.3727 33.8294 37.4186 33.9895 37.5027 34.1304C37.5868 34.2712 37.7062 34.388 37.8492 34.4694C37.9922 34.5509 38.154 34.5941 38.3188 34.5949H47.1468C47.3099 34.597 47.4707 34.5565 47.6131 34.4775C47.7555 34.3984 47.8744 34.2835 47.9581 34.1444L66.9504 1.42272Z"
      fill="white"
    />
    <path
      d="M28.0827 17.0486L18.4911 33.196C18.4062 33.3373 18.3607 33.4985 18.3594 33.663C18.3581 33.8276 18.401 33.9895 18.4837 34.1321C18.5663 34.2746 18.6858 34.3927 18.8297 34.4741C18.9736 34.5554 19.1368 34.5972 19.3023 34.595H28.8939C29.017 34.5983 29.1395 34.5766 29.2538 34.5313C29.3682 34.4859 29.4721 34.4179 29.5592 34.3314C29.6463 34.2449 29.7147 34.1416 29.7603 34.028C29.8059 33.9143 29.8277 33.7926 29.8244 33.6703V17.5228C29.8293 17.3165 29.7646 17.1145 29.6405 16.9489C29.5165 16.7834 29.3403 16.6638 29.14 16.6093C28.9397 16.5547 28.7268 16.5684 28.5352 16.648C28.3436 16.7276 28.1843 16.8686 28.0827 17.0486Z"
      fill="#FF4471"
    />
    <path
      d="M28.9654 46.0002C29.4398 46.0002 29.8243 45.618 29.8243 45.1466C29.8243 44.6751 29.4398 44.293 28.9654 44.293C28.491 44.293 28.1064 44.6751 28.1064 45.1466C28.1064 45.618 28.491 46.0002 28.9654 46.0002Z"
      fill="white"
    />
    <path
      d="M0.0954386 44.5061C1.81333 44.601 3.00632 44.6484 3.60281 44.6484C3.66761 44.657 3.73353 44.6508 3.79555 44.6303C3.85758 44.6097 3.91406 44.5754 3.9607 44.5298C4.00387 44.4817 4.03671 44.4254 4.05722 44.3642C4.07773 44.3031 4.08548 44.2384 4.08 44.1742V43.3206H1.90877C1.2407 43.3206 0.739649 43.1783 0.453333 42.8701C0.167018 42.5618 0 42.0876 0 41.4V41.1154C0 40.4515 0.143158 39.9773 0.453333 39.669C0.763509 39.3608 1.2407 39.2185 1.90877 39.2185H5.24912V40.5463H2.29053C2.21254 40.5342 2.13276 40.5405 2.0577 40.5648C1.98264 40.5891 1.91442 40.6307 1.8586 40.6862C1.80278 40.7416 1.76094 40.8094 1.73649 40.884C1.71203 40.9586 1.70566 41.0379 1.71789 41.1154V41.3051C1.70662 41.3835 1.71346 41.4634 1.73788 41.5388C1.7623 41.6142 1.80368 41.683 1.85886 41.7402C1.91405 41.7973 1.9816 41.8412 2.05639 41.8685C2.13118 41.8958 2.21125 41.9059 2.29053 41.8979H3.98456C4.60491 41.8979 5.08211 42.0402 5.36842 42.3247C5.65474 42.6092 5.79789 43.0835 5.79789 43.6999V44.1742C5.79789 44.8144 5.65474 45.2649 5.36842 45.5494C5.08211 45.834 4.60491 45.9999 3.98456 45.9999H2.9586L2.09965 45.9525L0.0954386 45.834V44.5061Z"
      fill="white"
    />
    <path
      d="M11.9774 41.0207C11.9896 40.9432 11.9832 40.8639 11.9588 40.7893C11.9343 40.7147 11.8925 40.6469 11.8367 40.5914C11.7809 40.536 11.7126 40.4944 11.6376 40.4701C11.5625 40.4458 11.4827 40.4395 11.4047 40.4516H9.80615C9.72816 40.4395 9.64839 40.4458 9.57333 40.4701C9.49826 40.4944 9.43004 40.536 9.37422 40.5914C9.3184 40.6469 9.27656 40.7147 9.25211 40.7893C9.22766 40.8639 9.22129 40.9432 9.23352 41.0207V44.0794C9.22129 44.157 9.22766 44.2362 9.25211 44.3108C9.27656 44.3854 9.3184 44.4532 9.37422 44.5087C9.43004 44.5642 9.49826 44.6057 9.57333 44.63C9.64839 44.6543 9.72816 44.6607 9.80615 44.6485H11.4047C11.4827 44.6607 11.5625 44.6543 11.6376 44.63C11.7126 44.6057 11.7809 44.5642 11.8367 44.5087C11.8925 44.4532 11.9343 44.3854 11.9588 44.3108C11.9832 44.2362 11.9896 44.157 11.9774 44.0794V41.0207ZM13.6953 44.0794C13.6953 44.7434 13.5521 45.2413 13.2419 45.5496C12.9318 45.8578 12.4546 46.0001 11.7865 46.0001H9.4244C8.75633 46.0001 8.25527 45.8341 7.96896 45.5496C7.68264 45.265 7.51562 44.7434 7.51562 44.0794V41.0207C7.51562 40.3568 7.65878 39.8825 7.96896 39.5743C8.27913 39.266 8.75633 39.1238 9.4244 39.1238H11.7865C12.4546 39.1238 12.9318 39.266 13.2419 39.5743C13.5521 39.8825 13.6953 40.3568 13.6953 41.0207V44.0794Z"
      fill="white"
    />
    <path
      d="M17.4181 45.9051H15.7002V39.2185H20.9732V40.5463H17.4181V42.135H20.2097V43.4628H17.4181V45.9051Z"
      fill="white"
    />
    <path
      d="M25.9111 46.0001H24.2171V40.6413H22.2129V39.3135H27.9153V40.6413H25.9111V46.0001Z"
      fill="white"
    />
    <path
      d="M32.2109 39.2185H36.1955C36.8636 39.2185 37.3408 39.3608 37.6509 39.669C37.9611 39.9773 38.1043 40.4515 38.1043 41.1154V41.9927C38.1205 42.419 38.0303 42.8425 37.8418 43.2257C37.7496 43.3726 37.6278 43.499 37.4841 43.5969C37.3404 43.6949 37.1779 43.7622 37.0067 43.7948L38.1997 45.9051H36.3387L35.2411 43.8896H33.9288V45.9051H32.2109V39.2185ZM36.3864 41.1154C36.3986 41.0379 36.3922 40.9586 36.3678 40.884C36.3433 40.8094 36.3015 40.7416 36.2457 40.6862C36.1898 40.6307 36.1216 40.5891 36.0466 40.5648C35.9715 40.5405 35.8917 40.5342 35.8137 40.5463H33.9288V42.5618H35.8137C35.8917 42.574 35.9715 42.5676 36.0466 42.5433C36.1216 42.519 36.1898 42.4774 36.2457 42.422C36.3015 42.3665 36.3433 42.2987 36.3678 42.2241C36.3922 42.1495 36.3986 42.0702 36.3864 41.9927V41.1154Z"
      fill="#FF4471"
    />
    <path
      d="M44.3787 41.0207C44.391 40.9432 44.3846 40.8639 44.3602 40.7893C44.3357 40.7147 44.2939 40.6469 44.238 40.5914C44.1822 40.536 44.114 40.4944 44.0389 40.4701C43.9639 40.4458 43.8841 40.4395 43.8061 40.4516H42.1837C42.1057 40.4395 42.0259 40.4458 41.9508 40.4701C41.8758 40.4944 41.8076 40.536 41.7517 40.5914C41.6959 40.6469 41.6541 40.7147 41.6296 40.7893C41.6052 40.8639 41.5988 40.9432 41.611 41.0207V44.0794C41.5988 44.157 41.6052 44.2362 41.6296 44.3108C41.6541 44.3854 41.6959 44.4532 41.7517 44.5087C41.8076 44.5642 41.8758 44.6057 41.9508 44.63C42.0259 44.6543 42.1057 44.6607 42.1837 44.6485H43.8061C43.8841 44.6607 43.9639 44.6543 44.0389 44.63C44.114 44.6057 44.1822 44.5642 44.238 44.5087C44.2939 44.4532 44.3357 44.3854 44.3602 44.3108C44.3846 44.2362 44.391 44.157 44.3787 44.0794V41.0207ZM46.0728 44.0794C46.0728 44.7434 45.9296 45.2413 45.6194 45.5496C45.3093 45.8578 44.8559 46.0001 44.1879 46.0001H41.8019C41.1338 46.0001 40.6566 45.8341 40.3465 45.5496C40.0363 45.265 39.917 44.7434 39.917 44.0794V41.0207C39.917 40.3568 40.0602 39.8825 40.3465 39.5743C40.6328 39.266 41.1338 39.1238 41.8019 39.1238H44.1879C44.8559 39.1238 45.3331 39.266 45.6194 39.5743C45.9058 39.8825 46.0728 40.3568 46.0728 41.0207V44.0794Z"
      fill="#FF4471"
    />
    <path
      d="M53.2064 45.8103C51.7987 45.9288 50.6296 45.9999 49.6991 45.9999C48.7686 45.9999 48.6254 45.8577 48.3391 45.5494C48.0528 45.2412 47.8857 44.8144 47.8857 44.1742V41.1154C47.8857 40.4515 48.0528 39.9773 48.3391 39.669C48.6254 39.3608 49.1264 39.2185 49.7945 39.2185H53.2064V40.5463H50.1763C50.0983 40.5342 50.0185 40.5405 49.9434 40.5648C49.8684 40.5891 49.8002 40.6307 49.7443 40.6862C49.6885 40.7416 49.6467 40.8094 49.6222 40.884C49.5978 40.9586 49.5914 41.0379 49.6036 41.1154V44.1742C49.6036 44.3024 49.6455 44.4272 49.7229 44.5298C49.7659 44.5735 49.8184 44.6068 49.8762 44.6273C49.9341 44.6479 49.9959 44.6551 50.057 44.6484H51.5124L52.1805 44.601L53.2064 44.5298V45.8103Z"
      fill="#FF4471"
    />
    <path
      d="M56.7384 45.9051H55.0205V39.2185H56.7384V41.8505H57.5973L59.0766 39.2185H60.8661L59.0051 42.5144L60.8661 45.9051H59.0528L57.5973 43.1783H56.7384V45.9051Z"
      fill="#FF4471"
    />
    <path
      d="M62.2976 44.5061C64.0155 44.601 65.2085 44.6484 65.8049 44.6484C65.8697 44.657 65.9357 44.6508 65.9977 44.6303C66.0597 44.6097 66.1162 44.5754 66.1628 44.5298C66.2403 44.4272 66.2821 44.3024 66.2821 44.1742V43.3206H64.1109C63.4428 43.3206 62.9657 43.1783 62.6555 42.8701C62.3453 42.5618 62.2021 42.0876 62.2021 41.4V41.1154C62.2021 40.4515 62.3453 39.9773 62.6555 39.669C62.9657 39.3608 63.4428 39.2185 64.1109 39.2185H67.4274V40.5463H64.4927C64.4147 40.5342 64.3349 40.5405 64.2598 40.5648C64.1848 40.5891 64.1166 40.6307 64.0607 40.6862C64.0049 40.7416 63.9631 40.8094 63.9386 40.884C63.9142 40.9586 63.9078 41.0379 63.92 41.1154V41.3051C63.9088 41.3835 63.9156 41.4634 63.94 41.5388C63.9644 41.6142 64.0058 41.683 64.061 41.7402C64.1162 41.7973 64.1837 41.8412 64.2585 41.8685C64.3333 41.8958 64.4134 41.9059 64.4927 41.8979H66.1867C66.8071 41.8979 67.2604 42.0402 67.5706 42.3247C67.8807 42.6092 68 43.0835 68 43.6999V44.1742C68 44.8144 67.8569 45.2649 67.5706 45.5494C67.2842 45.834 66.8071 45.9999 66.1867 45.9999H65.1607L64.3018 45.9525L62.2976 45.834V44.5061Z"
      fill="#FF4471"
    />
    <path
      d="M65.9958 17.0485L56.4042 33.1959C56.3193 33.3372 56.2738 33.4984 56.2725 33.6629C56.2712 33.8275 56.3141 33.9894 56.3968 34.1319C56.4794 34.2745 56.5989 34.3926 56.7428 34.4739C56.8867 34.5553 57.0498 34.5971 57.2154 34.5949H66.807C66.9312 34.598 67.0547 34.5765 67.1704 34.5314C67.2861 34.4863 67.3915 34.4187 67.4804 34.3325C67.5694 34.2464 67.6401 34.1433 67.6883 34.0296C67.7366 33.9158 67.7614 33.7936 67.7614 33.6701V17.5227C67.756 17.3186 67.6845 17.1217 67.5574 16.9612C67.4304 16.8007 67.2547 16.6852 67.0563 16.632C66.858 16.5787 66.6476 16.5905 66.4566 16.6655C66.2655 16.7405 66.1039 16.8749 65.9958 17.0485Z"
      fill="white"
    />
    <path
      d="M38.4375 17.5464L48.0291 1.42268C48.1122 1.27961 48.1563 1.11744 48.157 0.95222C48.1577 0.787004 48.1149 0.624476 48.033 0.480733C47.951 0.33699 47.8327 0.217018 47.6897 0.132698C47.5467 0.0483783 47.3841 0.00263554 47.2178 0L37.6263 0C37.3731 0 37.1304 0.0999261 36.9514 0.277796C36.7724 0.455665 36.6719 0.696908 36.6719 0.948454V17.0722C36.6773 17.2763 36.7488 17.4732 36.8758 17.6337C37.0028 17.7942 37.1786 17.9096 37.3769 17.9629C37.5753 18.0162 37.7856 18.0044 37.9767 17.9294C38.1678 17.8543 38.3294 17.72 38.4375 17.5464Z"
      fill="white"
    />
    <path
      d="M29.7054 1.42272C29.7895 1.27791 29.8336 1.11357 29.8333 0.946353C29.8329 0.779138 29.788 0.614993 29.7033 0.470555C29.6185 0.326118 29.4968 0.206523 29.3505 0.123893C29.2042 0.0412622 29.0386 -0.0014662 28.8703 3.84061e-05H20.0661C19.8985 0.00525096 19.7347 0.0512044 19.5892 0.133877C19.4436 0.21655 19.3206 0.333422 19.231 0.474265L0.262582 33.1959C0.177657 33.3372 0.132195 33.4984 0.130888 33.6629C0.129582 33.8275 0.172478 33.9894 0.25515 34.132C0.337822 34.2745 0.457276 34.3926 0.601186 34.474C0.745095 34.5553 0.908249 34.5971 1.07381 34.5949H9.90188C10.0677 34.5943 10.2308 34.5529 10.3766 34.4742C10.5223 34.3956 10.6462 34.2823 10.737 34.1444L21.1636 16.1238L29.7054 1.42272Z"
      fill="#FF4471"
    />
  </g>
  <defs>
    <clipPath id="clip0">
      <rect width="68" height="46" fill="white" />
    </clipPath>
  </defs>
</svg>
