<svg viewBox="0 0 22 43" fill="none" xmlns="http://www.w3.org/2000/svg">
  <path
    d="M10.9999 0C15.2713 0 18.7461 3.52945 18.7461 7.86754V14.1327C18.7461 18.4708 15.2713 22 10.9999 22C6.7289 22 3.2538 18.4815 3.2538 14.1567V7.86754C3.2538 3.52945 6.7289 0 10.9999 0ZM4.71078 14.1567C4.71078 17.6782 7.53194 20.5431 10.9999 20.5431C14.4677 20.5431 17.2891 17.6673 17.2891 14.1325V7.86754C17.2891 4.33271 14.4677 1.45694 10.9999 1.45694C7.5319 1.45694 4.71078 4.33271 4.71078 7.86754V14.1567Z"
    fill="white"
    fill-opacity="0.4"
  />
  <path
    d="M11 6.02197C11.4024 6.02197 11.7285 6.34811 11.7285 6.75047V9.30014C11.7285 9.7025 11.4024 10.0286 11 10.0286C10.5977 10.0286 10.2715 9.7025 10.2715 9.30014V6.75047C10.2715 6.34811 10.5977 6.02197 11 6.02197Z"
    fill="white"
    fill-opacity="0.4"
  />
  <path
    d="M10.6464 42.3536C10.8417 42.5488 11.1583 42.5488 11.3536 42.3536L14.5355 39.1716C14.7308 38.9763 14.7308 38.6597 14.5355 38.4645C14.3403 38.2692 14.0237 38.2692 13.8284 38.4645L11 41.2929L8.17157 38.4645C7.97631 38.2692 7.65973 38.2692 7.46447 38.4645C7.2692 38.6597 7.2692 38.9763 7.46447 39.1716L10.6464 42.3536ZM10.5 29L10.5 42L11.5 42L11.5 29L10.5 29Z"
    fill="white"
    fill-opacity="0.4"
  />
</svg>
