<svg width="30" height="30" viewBox="0 0 30 30" fill="none" xmlns="http://www.w3.org/2000/svg">
<path d="M25.6055 8.55469H21.4453V4.39453C21.4453 1.97136 19.474 0 17.0508 0H12.9492C10.526 0 8.55469 1.97136 8.55469 4.39453V8.55469H4.39453C1.97136 8.55469 0 10.526 0 12.9492V17.0508C0 19.474 1.97136 21.4453 4.39453 21.4453H8.55469V25.6055C8.55469 28.0286 10.526 30 12.9492 30H17.0508C19.474 30 21.4453 28.0286 21.4453 25.6055V21.4453H25.6055C28.0286 21.4453 30 19.474 30 17.0508V12.9492C30 10.526 28.0286 8.55469 25.6055 8.55469ZM4.39453 19.6875C2.94067 19.6875 1.75781 18.5046 1.75781 17.0508V12.9492C1.75781 11.4954 2.94067 10.3125 4.39453 10.3125H15C15.4855 10.3125 15.8789 9.91905 15.8789 9.43359C15.8789 8.94814 15.4855 8.55469 15 8.55469H10.3125V4.39453C10.3125 2.94067 11.4954 1.75781 12.9492 1.75781H17.0508C18.5046 1.75781 19.6875 2.94067 19.6875 4.39453V14.1211H9.43359C8.94814 14.1211 8.55469 14.5145 8.55469 15V19.6875H4.39453ZM28.2422 17.0508C28.2422 18.5046 27.0593 19.6875 25.6055 19.6875H15C14.5145 19.6875 14.1211 20.0809 14.1211 20.5664C14.1211 21.0519 14.5145 21.4453 15 21.4453H19.6875V25.6055C19.6875 27.0593 18.5046 28.2422 17.0508 28.2422H12.9492C11.4954 28.2422 10.3125 27.0593 10.3125 25.6055V15.8789H20.5664C21.0519 15.8789 21.4453 15.4855 21.4453 15V10.3125H25.6055C27.0593 10.3125 28.2422 11.4954 28.2422 12.9492V17.0508Z" fill="black"/>
<path d="M13.8281 5.27344C13.8281 5.7589 13.4347 6.15234 12.9492 6.15234C12.4638 6.15234 12.0703 5.7589 12.0703 5.27344C12.0703 4.78798 12.4638 4.39453 12.9492 4.39453C13.4347 4.39453 13.8281 4.78798 13.8281 5.27344Z" fill="black"/>
<path d="M17.9297 24.7266C17.9297 25.212 17.5362 25.6055 17.0508 25.6055C16.5653 25.6055 16.1719 25.212 16.1719 24.7266C16.1719 24.2411 16.5653 23.8477 17.0508 23.8477C17.5362 23.8477 17.9297 24.2411 17.9297 24.7266Z" fill="black"/>
</svg>
