<svg width="34" height="32" viewBox="0 0 34 32" fill="none" xmlns="http://www.w3.org/2000/svg">
<path d="M19.3143 15.9872C19.3143 16.3013 19.2524 16.6124 19.1322 16.9026C19.012 17.1928 18.8358 17.4565 18.6137 17.6786C18.3916 17.9007 18.1279 18.0769 17.8377 18.1971C17.5474 18.3173 17.2364 18.3792 16.9223 18.3792C16.6082 18.3792 16.2971 18.3173 16.0069 18.1971C15.7167 18.0769 15.453 17.9007 15.2309 17.6786C15.0088 17.4565 14.8326 17.1928 14.7124 16.9026C14.5921 16.6124 14.5303 16.3013 14.5303 15.9872C14.5303 15.3528 14.7823 14.7444 15.2309 14.2958C15.6795 13.8472 16.2879 13.5952 16.9223 13.5952C17.5567 13.5952 18.1651 13.8472 18.6137 14.2958C19.0623 14.7444 19.3143 15.3528 19.3143 15.9872Z" fill="black"/>
<path d="M16.922 24.7831C18.8 26.6091 20.651 27.6891 22.143 27.6891C22.632 27.6891 23.095 27.5861 23.48 27.3551C24.817 26.5831 25.306 24.6541 24.843 21.9021C24.766 21.4131 24.663 20.9251 24.534 20.4101C25.048 20.2561 25.511 20.1011 25.974 19.9471C28.572 18.9441 30.012 17.5551 30.012 16.0381C30.012 14.4951 28.572 13.1061 25.974 12.1291C25.511 11.9491 25.048 11.7951 24.534 11.6661C24.663 11.1521 24.766 10.6631 24.843 10.1741C25.28 7.37106 24.792 5.41606 23.454 4.64406C23.068 4.41306 22.605 4.31006 22.117 4.31006C20.651 4.31006 18.773 5.39006 16.896 7.21606C15.044 5.39006 13.192 4.31006 11.701 4.31006C11.212 4.31006 10.749 4.41306 10.364 4.64406C9.02703 5.41606 8.53803 7.34506 9.00103 10.0971C9.07803 10.5861 9.18103 11.0741 9.31003 11.5891C8.79603 11.7431 8.33303 11.8981 7.87003 12.0521C5.27203 13.0551 3.83203 14.4441 3.83203 15.9611C3.83203 17.5041 5.27203 18.8931 7.87003 19.8701C8.33303 20.0501 8.79603 20.2041 9.31003 20.3331C9.18463 20.8255 9.08152 21.3233 9.00103 21.8251C8.56403 24.5771 9.05203 26.5321 10.364 27.2781C10.75 27.5101 11.213 27.6121 11.701 27.6121C13.193 27.6631 15.045 26.5831 16.922 24.7831ZM15.481 21.3111C15.944 21.3371 16.433 21.3371 16.921 21.3371C17.409 21.3371 17.898 21.3371 18.361 21.3111C17.9076 21.9071 17.4271 22.482 16.921 23.0341C16.4147 22.4823 15.9342 21.9073 15.481 21.3111ZM12.292 18.6621C12.549 19.0991 12.781 19.5111 13.064 19.9221C12.3047 19.8246 11.5497 19.6958 10.801 19.5361C11.033 18.8421 11.29 18.1211 11.598 17.4011C11.804 17.8121 12.035 18.2501 12.292 18.6611V18.6621ZM10.8 12.4631C11.52 12.3091 12.266 12.1801 13.063 12.0771C12.806 12.4891 12.549 12.9001 12.291 13.3371C12.033 13.7741 11.802 14.1861 11.597 14.6231C11.2831 13.9214 11.0169 13.1995 10.8 12.4621V12.4631ZM12.215 15.9871C12.549 15.2931 12.909 14.5981 13.321 13.9041C13.707 13.2351 14.144 12.5671 14.581 11.8981C16.14 11.7944 17.7041 11.7944 19.263 11.8981C19.726 12.5671 20.137 13.2351 20.523 13.9041C20.935 14.5981 21.295 15.2931 21.629 15.9871C21.291 16.6972 20.9219 17.3922 20.523 18.0701C20.137 18.7391 19.7 19.4071 19.263 20.0761C17.7041 20.1797 16.14 20.1797 14.581 20.0761C14.1336 19.425 13.7132 18.7558 13.321 18.0701C12.9223 17.3921 12.5533 16.6971 12.215 15.9871ZM22.272 14.5981L21.578 13.3121C21.321 12.8751 21.089 12.4631 20.806 12.0521C21.603 12.1551 22.349 12.2841 23.069 12.4381C22.838 13.1581 22.58 13.8781 22.272 14.5991V14.5981ZM22.272 17.3761C22.581 18.0961 22.838 18.8161 23.069 19.5111C22.349 19.6651 21.603 19.7941 20.806 19.8971C21.063 19.4851 21.32 19.0741 21.578 18.6371C21.81 18.2511 22.041 17.8141 22.272 17.3771V17.3761ZM22.863 26.3011C22.657 26.4301 22.4 26.4811 22.117 26.4811C20.857 26.4811 19.288 25.4521 17.745 23.9091C18.5312 23.0568 19.2614 22.1546 19.931 21.2081C21.0918 21.1133 22.2439 20.9328 23.378 20.6681C23.507 21.1311 23.584 21.5941 23.661 22.0571C24.021 24.2431 23.738 25.8121 22.864 26.3011H22.863ZM24.201 12.7461C27.082 13.5691 28.805 14.8291 28.805 15.9871C28.805 16.9901 27.622 17.9931 25.539 18.7911C25.127 18.9451 24.665 19.1001 24.202 19.2281C23.8521 18.1218 23.4312 17.0392 22.942 15.9871C23.456 14.8811 23.894 13.8011 24.202 12.7461H24.201ZM22.143 5.49306C22.426 5.49306 22.657 5.54406 22.889 5.67306C23.738 6.16206 24.046 7.70506 23.686 9.91706C23.609 10.3541 23.506 10.8171 23.403 11.3061C22.2643 11.0655 21.1137 10.8853 19.956 10.7661C19.2942 9.81361 18.5636 8.91086 17.77 8.06506C19.313 6.54706 20.882 5.49306 22.142 5.49306H22.143ZM18.362 10.6631C17.899 10.6371 17.41 10.6371 16.922 10.6371C16.434 10.6371 15.945 10.6371 15.482 10.6631C15.945 10.0461 16.434 9.48006 16.922 8.94006C17.411 9.48006 17.899 10.0721 18.362 10.6631ZM10.98 5.67306C11.186 5.54406 11.443 5.49306 11.726 5.49306C12.986 5.49306 14.555 6.52206 16.098 8.06506C15.3116 8.91708 14.5814 9.81931 13.912 10.7661C12.7513 10.8608 11.5991 11.0413 10.465 11.3061C10.336 10.8431 10.259 10.3801 10.182 9.91706C9.82203 7.73106 10.105 6.18806 10.979 5.67306H10.98ZM9.64303 19.2281C6.76203 18.4051 5.03903 17.1451 5.03903 15.9871C5.03903 14.9841 6.22203 13.9811 8.30503 13.1841C8.71703 13.0301 9.17903 12.8751 9.64203 12.7471C9.99198 13.8533 10.4129 14.9359 10.902 15.9881C10.388 17.0941 9.95003 18.2001 9.64203 19.2291L9.64303 19.2281ZM10.183 22.0571C10.26 21.6201 10.363 21.1571 10.466 20.6681C11.546 20.9001 12.704 21.0801 13.913 21.2081C14.5748 22.1605 15.3055 23.0633 16.099 23.9091C14.556 25.4261 12.987 26.4811 11.727 26.4811C11.444 26.4811 11.213 26.4301 10.981 26.3011C10.106 25.8121 9.82403 24.2431 10.184 22.0571H10.183Z" fill="black"/>
</svg>
