<svg width="26" height="22" viewBox="0 0 26 22" fill="none" xmlns="http://www.w3.org/2000/svg">
<g clip-path="url(#clip0)">
<path d="M0 7.27793L0.638669 6.21176C1.8336 4.30496 3.04913 2.39815 4.22345 0.470848C4.29957 0.320772 4.41816 0.19615 4.5646 0.112351C4.71104 0.0285534 4.87892 -0.0107554 5.04754 -0.000726803H21.2203C21.3945 -0.0131533 21.5685 0.0272032 21.7193 0.115034C21.87 0.202865 21.9906 0.334057 22.065 0.491352C23.3217 2.54168 24.5784 4.592 25.8558 6.60132C26.103 6.99089 26.0412 7.19592 25.7734 7.50347C21.6804 12.1919 17.5943 16.894 13.5151 21.6097C13.0618 22.1223 13.0618 22.1223 12.6086 21.6097L0.659271 8.03655L0 7.27793ZM8.75594 7.66749L13.1442 18.3702L17.5119 7.66749H8.75594ZM11.2488 17.8371C11.2481 17.7601 11.2341 17.6839 11.2076 17.6116C9.84786 14.3926 8.50872 11.153 7.12837 7.93404C7.07732 7.85276 7.00789 7.78447 6.92562 7.73464C6.84335 7.6848 6.75051 7.65478 6.65452 7.64699H2.65769L2.28685 7.7085L11.2488 17.8371ZM15.0396 17.6936L15.1014 17.7346L23.7132 7.64699H19.4691C19.3455 7.64699 19.2013 7.85202 19.1189 8.01605C18.8098 8.71316 18.5214 9.43077 18.2124 10.1484C17.1616 12.6703 16.0903 15.1717 15.0396 17.6936ZM9.55943 5.8427H16.9144C15.6577 4.40747 14.4628 3.05426 13.2266 1.70104L9.55943 5.8427ZM7.89065 5.49415L11.7021 1.20897H6.11886L7.89065 5.49415ZM18.4596 5.33012C19.0364 3.9154 19.5927 2.58268 20.149 1.18846H14.7718L18.4596 5.33012ZM23.775 5.86321L21.4881 2.19312L20.0048 5.86321H23.775ZM6.28368 5.86321L4.82092 2.29564L2.57528 5.86321H6.28368Z" fill="#201600"/>
</g>
<defs>
<clipPath id="clip0">
<rect width="26" height="22" fill="white"/>
</clipPath>
</defs>
</svg>
