<svg width="17" height="27" viewBox="0 0 17 27" fill="none" xmlns="http://www.w3.org/2000/svg">
<g clip-path="url(#clip0)">
<path d="M15.9721 7.46257C16.9195 7.85869 16.9996 8.52315 16.9862 9.27705C16.9595 10.7721 16.9862 12.2543 16.9862 13.7494C16.9862 14.7461 16.9595 14.7844 16.1456 15.5511C17.2131 16.1389 16.9729 17.1355 16.9729 18.0428C16.9862 19.3206 16.9329 20.6112 16.9996 21.8762C17.053 22.8218 16.6393 23.4862 15.812 23.8312C14.4376 24.4063 13.0498 25.0579 11.5953 25.339C8.24604 25.978 4.87006 26.438 1.49408 26.9107C0.0262636 27.1152 0.0129198 27.0385 0.0129198 25.5691C0.0129198 24.0996 0.0262636 22.5918 -0.000423956 21.0967C-0.000423956 20.5728 0.146358 20.2917 0.773516 20.2406C2.27752 20.0904 3.77042 19.8514 5.24369 19.525C3.84259 19.3461 2.45484 19.1545 1.04039 19.0011C0.0796389 18.8861 0.0129198 18.835 0.0129198 17.9022C0.0129198 16.2666 0.0262636 14.6183 -0.000423956 12.9827C-0.0137678 12.3949 0.213077 12.1521 0.840235 12.0882C2.37811 11.9525 3.90637 11.7306 5.41716 11.4238L4.05609 11.2065C2.90852 11.066 1.7743 10.9382 0.626735 10.8232C0.213077 10.7721 0.0129198 10.5804 0.0129198 10.2098V4.6514C0.0129198 4.22972 0.226421 4.07639 0.653422 4.0125C3.57571 3.61638 6.51135 3.24582 9.40695 2.74747C11.0349 2.45358 12.6228 1.95523 14.1974 1.48245C14.958 1.25244 15.6919 0.920212 16.1322 0.191864C16.1989 0.0768614 16.5059 -0.0381409 16.6126 0.0129712C16.7021 0.063728 16.7794 0.13213 16.8392 0.21364C16.899 0.295151 16.94 0.387908 16.9595 0.485759C16.9996 1.08633 16.9862 1.68689 16.9862 2.27468C16.9862 3.34804 16.9462 4.40862 16.9862 5.46919C17.0263 6.26143 16.9062 6.96423 15.9721 7.46257ZM16.0388 9.86484C13.6236 11.0532 11.1283 11.5132 8.61967 11.9349C6.11104 12.3566 3.54903 12.6888 0.987017 13.0594V17.8895L1.14714 17.9406C4.56316 17.4167 7.99251 16.9567 11.3818 16.3178C12.7429 16.0622 14.0506 15.4361 15.3449 14.9122C15.6385 14.7972 15.9988 14.4138 16.0121 14.1327C16.0789 12.7527 16.0388 11.3726 16.0388 9.86484ZM0.96033 9.78817C1.17362 9.80103 1.38754 9.80103 1.60083 9.78817C4.08278 9.44316 6.59141 9.20038 9.04667 8.71482C11.0082 8.33148 12.9164 7.6798 14.8245 7.09201C15.7052 6.82367 16.1856 6.24866 16.0655 5.25197C15.9454 4.25528 16.0388 3.50138 16.0388 2.63247V1.63578C13.8771 2.77303 11.6487 3.29693 9.36692 3.66749C6.75154 4.10194 4.10947 4.43417 1.48074 4.83029C1.29392 4.85585 0.973673 5.04752 0.973673 5.16252C0.946986 6.69589 0.96033 8.21647 0.96033 9.78817ZM0.946986 26.0163C1.19589 26.0292 1.44534 26.0292 1.69424 26.0163C4.84338 25.5307 8.00586 25.109 11.1283 24.5085C12.5427 24.2274 13.8905 23.614 15.2382 23.1029C15.5584 22.9879 15.9854 22.6301 15.9988 22.3745C16.0655 20.9434 16.0255 19.4995 16.0255 18.1706C14.4376 18.6306 12.9297 19.2056 11.3551 19.4995C8.09926 20.0873 4.80334 20.5345 1.52077 21.0456C1.24055 21.0967 0.946986 21.0712 0.946986 21.4801C0.96033 22.9751 0.946986 24.4574 0.946986 26.0163ZM16.1856 8.67648C15.6652 8.30592 15.4784 7.87147 14.8512 8.06314C13.3033 8.56148 11.7421 9.04705 10.1542 9.40483C8.33945 9.80095 6.49801 10.0437 4.79 10.3376C8.03254 11.411 11.2617 10.7593 14.4242 9.58372C15.0113 9.37927 15.5318 9.02149 16.1856 8.67648ZM4.99016 18.4517V18.5539L5.81747 18.6945C7.2586 18.835 8.67305 19.3589 10.1409 18.8734C10.5412 18.7328 10.9815 18.72 11.3685 18.5922C12.7562 18.1578 14.1307 17.6978 15.4784 17.1994C15.6785 17.1228 15.9321 16.65 15.8654 16.5733C15.6519 16.2922 15.4117 15.9983 14.8779 16.1772C13.2767 16.6883 11.6487 17.1994 9.99408 17.57C8.33945 17.9406 6.67148 18.1706 4.99016 18.4517Z" fill="black"/>
<path d="M8.01941 6.36362C8.03275 6.21028 7.97938 6.03139 8.0461 5.92917C8.18108 5.76151 8.33805 5.6112 8.51313 5.48193C8.65991 5.63527 8.88675 5.77583 8.94013 5.95472C9.01373 6.21843 9.01373 6.49603 8.94013 6.75974C8.87341 6.95141 8.64657 7.09197 8.48644 7.25808C8.32059 7.09896 8.17297 6.92333 8.0461 6.73418C7.97938 6.64474 8.03275 6.4914 8.03275 6.36362H8.01941Z" fill="black"/>
<path d="M11.3016 5.92873C11.3016 6.08206 11.355 6.24818 11.2883 6.36318C11.2216 6.47818 10.9947 6.78485 10.888 6.7593C10.7822 6.73586 10.6836 6.68896 10.6001 6.62238C10.5167 6.5558 10.4507 6.4714 10.4076 6.37596C10.3233 6.0925 10.3187 5.79276 10.3942 5.50705C10.4476 5.31538 10.7012 5.17482 10.8746 5.02148C11.0315 5.18624 11.1701 5.36609 11.2883 5.55816C11.355 5.64761 11.3016 5.80094 11.3016 5.92873Z" fill="black"/>
<path d="M5.68428 6.75929C5.68428 6.60596 5.6309 6.42706 5.69762 6.31206C5.76434 6.19706 5.99118 6.00539 6.13796 5.85205C6.29809 6.00539 6.52493 6.13317 6.59165 6.31206C6.6691 6.5573 6.67372 6.81835 6.605 7.06597C6.52493 7.28319 6.29809 7.44931 6.13796 7.6282C5.97647 7.45179 5.82926 7.26383 5.69762 7.06597C5.64424 6.9893 5.68428 6.86152 5.68428 6.75929Z" fill="black"/>
<path d="M4.22947 7.06617C4.22947 7.21951 4.28285 7.3984 4.21613 7.50063C4.08756 7.67295 3.93992 7.83147 3.77578 7.97341C3.61566 7.82008 3.38881 7.6923 3.33544 7.5134C3.25106 7.26924 3.24641 7.00626 3.32209 6.7595C3.40216 6.54227 3.61566 6.37616 3.77578 6.19727C3.9416 6.37345 4.09327 6.5614 4.22947 6.7595C4.2695 6.83617 4.22947 6.96395 4.22947 7.06617Z" fill="black"/>
<path d="M12.7565 5.23925C12.7565 5.08591 12.7165 4.91979 12.7699 4.80479C12.8233 4.68979 13.0501 4.38312 13.1569 4.3959C13.2635 4.42111 13.3631 4.46853 13.4484 4.53479C13.5337 4.60105 13.6028 4.68451 13.6506 4.77924C13.7348 5.0627 13.7394 5.36243 13.6639 5.64814C13.6105 5.83981 13.357 5.98037 13.1835 6.14649C13.034 5.97613 12.8958 5.79688 12.7699 5.60981C12.7032 5.52036 12.7565 5.36703 12.7565 5.23925Z" fill="black"/>
<path d="M3.81642 23.8053C3.65629 23.652 3.34938 23.4986 3.36273 23.3453C3.37607 23.192 3.61626 22.8853 3.80307 22.847C5.91139 22.4892 8.03306 22.1442 10.1547 21.8247C10.3549 21.7992 10.6084 22.0292 10.8486 22.1442C10.6885 22.3231 10.5684 22.6297 10.3949 22.6553C8.24656 23.0642 6.08486 23.422 3.81642 23.8053Z" fill="black"/>
<path d="M12.2362 22.2465C12.1161 22.1315 11.8759 22.0293 11.8626 21.9015C11.8492 21.7738 11.9427 21.4543 12.0894 21.3904C12.3969 21.2199 12.7374 21.1112 13.0902 21.071C13.2637 21.0582 13.5439 21.2371 13.6373 21.3904C13.7307 21.5437 13.5172 21.8121 13.3704 21.876C13.2237 21.9399 12.6632 22.106 12.2362 22.2465Z" fill="black"/>
</g>
<defs>
<clipPath id="clip0">
<rect width="17" height="27" fill="white"/>
</clipPath>
</defs>
</svg>
