<svg
  width="100%"
  viewBox="0 0 35 35"
  fill="none"
  xmlns="http://www.w3.org/2000/svg"
>
  <path
    fill-rule="evenodd"
    clip-rule="evenodd"
    d="M19.0421 16.0197C19.7091 13.7068 21.3499 12.3005 23.4672 12.3005C25.9656 12.3005 28 14.3804 28 16.9305C28 19.4848 25.9656 21.5774 23.4672 21.5774C22.2987 21.5774 21.2795 21.2131 20.3928 20.6328L19.3818 25.5H17.0491L18.4454 18.7901C17.7866 17.9429 17.2439 16.9898 16.8005 16.0451V17.0618C16.8005 19.5441 14.8241 21.5817 12.3961 21.5817C9.96812 21.5817 7.99174 19.5441 8.00003 17.0618V11H10.2789V17.0618C10.2789 18.2564 11.2318 19.2306 12.4003 19.2306C13.5687 19.2306 14.5217 18.2564 14.5217 17.0618V11H16.8005C17.2521 12.58 18.0228 14.4566 19.0421 16.0197ZM20.9024 18.1928C21.6855 18.8409 22.5473 19.2391 23.4672 19.2391C24.706 19.2391 25.717 18.2055 25.7212 16.9389C25.7212 15.6681 24.7102 14.6345 23.4672 14.6345C21.8098 14.6345 21.2712 16.2696 21.1013 17.2439L21.093 17.2778L20.9024 18.1928Z"
    fill="white"
  />
</svg>
